<svg viewBox="0 0 512 512" fill="none" xmlns="http://www.w3.org/2000/svg">
<rect width="512" height="512" fill="url(#paint0_linear_2104_6550)"/>
<path d="M49.156 206.852C49.156 188.54 60.056 179.384 81.856 179.384C103.947 179.384 114.992 188.976 114.992 208.16V236.064H99.732V208.596C99.732 200.167 98.5693 194.063 96.244 190.284C93.9187 186.215 89.268 184.18 82.292 184.18C75.316 184.18 70.52 186.215 67.904 190.284C65.5787 194.063 64.416 200.167 64.416 208.596V372.968C64.416 381.397 65.5787 387.647 67.904 391.716C70.2293 395.495 74.88 397.384 81.856 397.384C88.832 397.384 93.4827 395.495 95.808 391.716C98.424 387.647 99.732 381.397 99.732 372.968V343.32H114.992V374.712C114.992 393.024 103.947 402.18 81.856 402.18C60.056 402.18 49.156 392.588 49.156 373.404V206.852ZM189.715 375.148C189.715 393.169 178.67 402.18 156.579 402.18C134.779 402.18 123.879 392.879 123.879 374.276V205.544C123.879 187.523 134.779 178.512 156.579 178.512C178.67 178.512 189.715 187.813 189.715 206.416V375.148ZM174.455 208.16C174.455 199.44 173.438 193.481 171.403 190.284C169.368 186.796 164.863 185.052 157.887 185.052C150.911 185.052 145.97 186.651 143.063 189.848C140.447 192.755 139.139 198.423 139.139 206.852V372.968C139.139 381.397 140.156 387.356 142.191 390.844C144.226 394.332 148.731 396.076 155.707 396.076C162.683 396.076 167.479 394.477 170.095 391.28C173.002 388.083 174.455 382.269 174.455 373.84V208.16ZM199.038 400V73H214.298V400H199.038ZM223.529 400V372.096H238.789V400H223.529ZM248.456 182H261.536V116.6H276.796V182H302.956V188.54H276.796V370.788C276.796 386.775 281.737 394.768 291.62 394.768C295.108 394.768 298.16 394.332 300.776 393.46L302.52 398.256C299.322 399.419 294.236 400 287.26 400C280.284 400 274.18 397.675 268.948 393.024C264.006 388.083 261.536 381.252 261.536 372.532V188.54H248.456V182ZM375.815 375.148C375.815 393.169 364.77 402.18 342.679 402.18C320.879 402.18 309.979 392.879 309.979 374.276V205.544C309.979 187.523 320.879 178.512 342.679 178.512C364.77 178.512 375.815 187.813 375.815 206.416V375.148ZM360.555 208.16C360.555 199.44 359.538 193.481 357.503 190.284C355.469 186.796 350.963 185.052 343.987 185.052C337.011 185.052 332.07 186.651 329.163 189.848C326.547 192.755 325.239 198.423 325.239 206.852V372.968C325.239 381.397 326.257 387.356 328.291 390.844C330.326 394.332 334.831 396.076 341.807 396.076C348.783 396.076 353.579 394.477 356.195 391.28C359.102 388.083 360.555 382.269 360.555 373.84V208.16ZM450.974 375.148C450.974 393.169 439.929 402.18 417.838 402.18C396.038 402.18 385.138 392.879 385.138 374.276V205.544C385.138 187.523 396.038 178.512 417.838 178.512C439.929 178.512 450.974 187.813 450.974 206.416V375.148ZM435.714 208.16C435.714 199.44 434.697 193.481 432.662 190.284C430.628 186.796 426.122 185.052 419.146 185.052C412.17 185.052 407.229 186.651 404.322 189.848C401.706 192.755 400.398 198.423 400.398 206.852V372.968C400.398 381.397 401.416 387.356 403.45 390.844C405.485 394.332 409.99 396.076 416.966 396.076C423.942 396.076 428.738 394.477 431.354 391.28C434.261 388.083 435.714 382.269 435.714 373.84V208.16Z" fill="url(#paint1_diamond_2104_6550)"/>
<defs>
<linearGradient id="paint0_linear_2104_6550" x1="256" y1="0" x2="256" y2="521" gradientUnits="userSpaceOnUse">
<stop stop-color="#FAF5FF"/>
<stop offset="0.541667" stop-color="white"/>
<stop offset="0.541767" stop-color="#FAF5FF"/>
<stop offset="1" stop-color="#FAF5FF"/>
</linearGradient>
<radialGradient id="paint1_diamond_2104_6550" cx="0" cy="0" r="1" gradientUnits="userSpaceOnUse" gradientTransform="translate(256.5 256.5) rotate(90) scale(567.259 532.805)">
<stop stop-color="#6B46C1"/>
<stop offset="1"/>
</radialGradient>
</defs>
</svg>
